<?xml version="1.0" standalone="no"?>
<!DOCTYPE svg PUBLIC "-//W3C//DTD SVG 20010904//EN"
 "http://www.w3.org/TR/2001/REC-SVG-20010904/DTD/svg10.dtd">
<svg version="1.0" xmlns="http://www.w3.org/2000/svg"
 width="205.000000pt" height="205.000000pt" viewBox="0 0 205.000000 205.000000"
 preserveAspectRatio="xMidYMid meet">

<g transform="translate(0.000000,205.000000) scale(0.100000,-0.100000)"
fill="#000000" stroke="none">
<path d="M209 1856 c-61 -21 -96 -54 -126 -114 l-28 -57 -3 -274 c-2 -151 -1
-284 2 -297 7 -27 41 -40 61 -24 12 10 15 47 15 191 l0 179 119 0 c95 0 123 3
135 16 18 18 19 23 6 44 -10 15 -27 17 -167 19 l-93 1 0 64 c0 75 11 111 47
148 30 31 51 36 181 41 68 2 96 7 103 18 12 19 11 25 -7 43 -20 20 -191 22
-245 2z"/>
<path d="M610 1624 c-62 -26 -83 -41 -105 -79 -24 -41 -25 -47 -25 -242 0
-171 2 -203 16 -214 11 -9 20 -10 32 -2 15 9 18 38 22 207 l5 198 32 28 c40
36 99 45 173 27 70 -16 90 -12 90 19 0 19 -8 29 -36 40 -37 16 -179 28 -204
18z"/>
<path d="M1030 1612 c-70 -26 -145 -107 -165 -177 -50 -170 78 -345 252 -345
100 0 172 36 158 79 -7 23 -43 28 -76 11 -34 -19 -122 -14 -167 9 -40 20 -92
82 -92 108 0 10 49 13 219 13 150 0 222 4 227 11 15 24 4 104 -21 155 -61 126
-206 184 -335 136z m178 -81 c47 -24 77 -56 97 -103 8 -21 15 -40 15 -43 0 -3
-88 -5 -196 -5 l-195 0 7 23 c18 60 66 117 114 136 42 16 118 13 158 -8z"/>
<path d="M1659 1616 c-121 -43 -191 -137 -190 -257 0 -148 118 -269 260 -269
59 0 127 19 146 40 37 41 -5 75 -64 50 -48 -19 -125 -14 -171 11 -36 20 -90
88 -90 112 0 4 99 7 220 7 212 0 220 1 230 21 7 12 9 37 5 61 -29 169 -197
278 -346 224z m187 -102 c46 -37 71 -70 80 -106 l6 -28 -197 0 -196 0 6 23
c12 41 61 102 100 125 59 34 150 28 201 -14z"/>
<path d="M372 960 c-62 -13 -109 -46 -135 -94 -21 -39 -22 -53 -25 -343 l-3
-302 24 -16 c20 -13 52 -16 173 -14 92 1 166 7 194 15 98 29 160 114 160 219
0 88 -38 152 -118 201 -2 1 7 22 19 46 35 66 32 144 -6 199 -18 25 -49 52 -75
65 -51 26 -145 36 -208 24z m178 -95 c33 -17 60 -61 60 -97 -1 -40 -37 -107
-62 -113 -13 -3 -76 -7 -141 -8 l-117 -2 0 68 c0 101 28 151 95 170 33 9 133
-2 165 -18z m60 -313 c22 -12 43 -35 58 -64 19 -39 21 -51 13 -88 -12 -52 -37
-89 -80 -113 -26 -16 -53 -19 -169 -19 l-137 0 -3 151 -3 151 143 0 c119 0
149 -3 178 -18z"/>
<path d="M968 957 c-99 -28 -150 -87 -156 -183 -4 -52 0 -69 18 -100 24 -37
110 -99 210 -149 75 -38 107 -63 121 -96 23 -56 -5 -115 -70 -149 -39 -20
-134 -13 -198 14 -62 26 -93 22 -93 -14 0 -69 175 -120 293 -86 90 26 141 81
158 171 19 99 -28 160 -197 251 -102 56 -164 109 -164 140 0 33 31 85 62 104
44 28 134 24 202 -9 53 -26 78 -21 84 17 5 29 -29 58 -87 76 -77 23 -132 27
-183 13z"/>
<path d="M1492 960 c-62 -13 -109 -46 -135 -94 -21 -39 -22 -53 -25 -343 l-3
-302 24 -16 c20 -13 52 -16 173 -14 92 1 166 7 194 15 98 29 160 114 160 219
0 88 -38 152 -118 201 -2 1 7 22 19 46 35 66 32 144 -6 199 -18 25 -49 52 -75
65 -51 26 -145 36 -208 24z m178 -95 c33 -17 60 -61 60 -97 -1 -40 -37 -107
-62 -113 -13 -3 -76 -7 -141 -8 l-117 -2 0 68 c0 101 28 151 95 170 33 9 133
-2 165 -18z m60 -313 c22 -12 43 -35 58 -64 19 -39 21 -51 13 -88 -12 -52 -37
-89 -80 -113 -26 -16 -53 -19 -169 -19 l-137 0 -3 151 -3 151 143 0 c119 0
149 -3 178 -18z"/>
</g>
</svg>
